<svg width="29" height="29" viewBox="0 0 29 29" fill="none" xmlns="http://www.w3.org/2000/svg">
<circle cx="14.5" cy="14.5" r="14.5" fill="#CCD5AE"/>
<rect x="12" y="3" width="4" height="6" rx="2" fill="#E9EDC9"/>
<rect x="7" y="7" width="14" height="13" rx="6.5" fill="#E9EDC9"/>
<rect x="7" y="8" width="14" height="14" rx="6" fill="#E9EDC9"/>
<rect x="5" y="17" width="18" height="5" fill="#E9EDC9"/>
<path d="M4.32372 16.1035L9.05779 17.2884L5.03298 20.9318L4.32372 16.1035Z" fill="#CCD5AE"/>
<path d="M23.9729 16.1285L23.2115 20.9488L19.2263 17.2622L23.9729 16.1285Z" fill="#CCD5AE"/>
<rect x="7" y="11" width="14" height="10" rx="5" fill="#E9EDC9"/>
<path d="M17 23C17 23.394 16.9224 23.7841 16.7716 24.1481C16.6209 24.512 16.3999 24.8427 16.1213 25.1213C15.8427 25.3999 15.512 25.6209 15.1481 25.7716C14.7841 25.9224 14.394 26 14 26C13.606 26 13.2159 25.9224 12.8519 25.7716C12.488 25.6209 12.1573 25.3999 11.8787 25.1213C11.6001 24.8427 11.3791 24.512 11.2284 24.1481C11.0776 23.7841 11 23.394 11 23L14 23H17Z" fill="#E9EDC9"/>
</svg>
